<svg width="48" height="48" viewBox="0 0 48 48" fill="none" xmlns="http://www.w3.org/2000/svg">
<g id="Bitcoin">
<g id="Bitcoin_2">
<rect id="Rectangle" width="40" height="40" rx="20" fill="#5E325F"/>
<path id="Path" d="M29.1933 17.5187C29.5903 14.6734 27.4729 13.2176 24.5614 12.1589L25.4877 8.32101L23.1718 7.79164L22.2454 11.4972C21.6499 11.3648 20.9882 11.2325 20.3926 11.034L21.319 7.26228L19.0031 6.66675L18.0767 10.5046C17.5473 10.3723 13.3786 9.31356 13.3786 9.31356L12.783 11.7619C12.783 11.7619 14.5035 12.1589 14.4373 12.1589C15.3637 12.4236 15.5622 13.0191 15.496 13.4823L12.9154 23.9372C12.783 24.2019 12.5184 24.6651 11.8566 24.4666C11.8566 24.5328 10.1362 24.0696 10.1362 24.0696L9.01132 26.7164C9.01132 26.7164 13.1801 27.7751 13.7094 27.9074L12.7169 31.7453L15.0328 32.3409L15.9592 28.503C16.6209 28.7015 17.2165 28.8338 17.812 28.9662L16.8856 32.7379L19.2016 33.3334L20.1941 29.4955C24.1643 30.2234 27.142 29.9587 28.3992 26.3855C29.3918 23.474 28.3331 21.8198 26.2818 20.761C27.7375 20.6287 28.8624 19.6361 29.1933 17.5187ZM23.8997 24.9959C23.1718 27.9074 18.3413 26.3194 16.7533 25.9223L18.0105 20.8272C19.5986 21.2242 24.6275 21.9521 23.8997 24.9959ZM24.6275 17.5187C23.9658 20.1655 19.9294 18.8421 18.606 18.5112L19.7309 13.8793C21.0543 14.144 25.2892 14.7395 24.6275 17.5187Z" fill="white"/>
</g>
</g>
</svg>
