<svg width="40" height="40" viewBox="0 0 40 40" fill="none" xmlns="http://www.w3.org/2000/svg">
<g id="call_24px">
<path id="icon/communication/call_24px" fill-rule="evenodd" clip-rule="evenodd" d="M6.66667 5H12.5C13.4167 5 14.1667 5.75 14.1667 6.66667C14.1667 8.75 14.5 10.75 15.1167 12.6167C15.3 13.2 15.1667 13.85 14.7 14.3167L11.0333 17.9833C13.4333 22.7 17.3 26.55 22.0167 28.9667L25.6833 25.3C26.0167 24.9833 26.4333 24.8167 26.8667 24.8167C27.0333 24.8167 27.2167 24.8333 27.3833 24.9C29.25 25.5167 31.2667 25.85 33.3333 25.85C34.25 25.85 35 26.6 35 27.5167V33.3333C35 34.25 34.25 35 33.3333 35C17.6833 35 5 22.3167 5 6.66667C5 5.75 5.75 5 6.66667 5ZM10.9 8.33333C11 9.81667 11.25 11.2667 11.65 12.65L9.65 14.65C8.96667 12.65 8.53333 10.5333 8.38333 8.33333H10.9ZM27.3333 28.3667C28.75 28.7667 30.2 29.0167 31.6667 29.1167V31.6C29.4667 31.45 27.35 31.0167 25.3333 30.35L27.3333 28.3667Z" fill="#454545"/>
</g>
</svg>
