<svg width="200" height="200" viewBox="0 0 200 200" fill="none" xmlns="http://www.w3.org/2000/svg">
<g clip-path="url(#clip0)">
<path d="M0 150.847V194.915H13.5593V188.136C13.5593 180.647 19.6306 174.576 27.1186 174.576H135.593C143.081 174.576 149.153 180.647 149.153 188.136V194.915H162.712V150.847H0Z" fill="#D9C2A0"/>
<path d="M149.153 59.322C143.537 59.322 138.983 54.7685 138.983 49.1525L142.373 42.3728H155.932L159.322 49.1525C159.322 54.7685 154.769 59.322 149.153 59.322Z" fill="#F7BA61"/>
<path d="M128.814 49.1525L142.373 32.2033L145.763 28.8135H152.542L155.932 32.2033L169.492 49.1525H128.814Z" fill="#E4E4E2"/>
<path d="M186.441 198.305C184.569 198.305 183.051 196.787 183.051 194.915V18.644C183.051 13.0279 178.497 8.47449 172.881 8.47449H162.712C157.096 8.47449 152.542 13.0279 152.542 18.644C152.542 20.516 151.024 22.0338 149.152 22.0338C147.28 22.0338 145.763 20.516 145.763 18.644C145.774 9.28718 153.355 1.70641 162.712 1.69482H172.881C182.238 1.70641 189.819 9.28718 189.83 18.644V194.915C189.83 196.787 188.313 198.305 186.441 198.305Z" fill="#C3C3C3"/>
<path d="M20.3388 72.8813H142.373C149.861 72.8813 155.932 78.9526 155.932 86.4407V120.339H6.77948V86.4407C6.77948 78.9526 12.8507 72.8813 20.3388 72.8813Z" fill="#D9C2A0"/>
<path d="M6.77948 113.559H155.932V123.729H6.77948V113.559Z" fill="#C1AC8E"/>
<path d="M162.712 154.237H0V127.119C0 123.375 3.03562 120.339 6.77966 120.339H155.932C159.676 120.339 162.712 123.375 162.712 127.119V154.237Z" fill="#FFB4C3"/>
<path d="M33.8983 93.2202H61.0169C68.505 93.2202 74.5762 99.2915 74.5762 106.78C74.5762 114.268 68.505 120.339 61.0169 120.339H33.8983C26.4102 120.339 20.3389 114.268 20.3389 106.78C20.3389 99.2915 26.4102 93.2202 33.8983 93.2202Z" fill="#E794A5"/>
<path d="M101.695 93.2202H128.814C136.302 93.2202 142.373 99.2915 142.373 106.78C142.373 114.268 136.302 120.339 128.814 120.339H101.695C94.207 120.339 88.1358 114.268 88.1358 106.78C88.1358 99.2915 94.207 93.2202 101.695 93.2202Z" fill="#E794A5"/>
<path d="M142.373 18.644H155.932V32.2034H142.373V18.644Z" fill="#DBDBDB"/>
<path d="M196.61 198.305H176.271C174.399 198.305 172.882 196.787 172.882 194.915C172.882 193.043 174.399 191.525 176.271 191.525H196.61C198.482 191.525 200 193.043 200 194.915C200 196.787 198.482 198.305 196.61 198.305Z" fill="#B9B9B9"/>
<path d="M61.0169 93.2202H33.8983C26.4102 93.2202 20.3389 99.2914 20.3389 106.78H74.5762C74.5762 99.2914 68.505 93.2202 61.0169 93.2202Z" fill="#FFB4C3"/>
<path d="M128.814 93.2202H101.695C94.207 93.2202 88.1357 99.2914 88.1357 106.78H142.373C142.373 99.2914 136.302 93.2202 128.814 93.2202Z" fill="#FFB4C3"/>
</g>
<defs>
<clipPath id="clip0">
<path d="M0 0H200V200H0V0Z" fill="white"/>
</clipPath>
</defs>
</svg>
