<svg width="200" height="200" viewBox="0 0 200 200" fill="none" xmlns="http://www.w3.org/2000/svg">
<path d="M116.667 126.005H83.3333L87.525 122.71C93.1819 118.262 94.908 110.534 91.6667 104.166L91.1667 103.001L96.3556 101.436H104.514L108.831 103.003L108.333 104.166C105.094 110.534 106.821 118.26 112.478 122.708L116.667 126.005Z" fill="#FBB540"/>
<path d="M116.667 139.656H83.3333V126.006L86.1111 124.983H113.889L116.667 126.006V139.656Z" fill="#FBB540"/>
<path d="M96.3556 101.436L91.1723 103.003L91.6695 104.166C92.7896 106.384 93.3361 108.838 93.2611 111.313C97.7177 112.463 102.425 112.26 106.761 110.729C106.774 108.452 107.312 106.209 108.336 104.166L108.836 103.001L104.517 101.436H96.3556Z" fill="#EA9D2D"/>
<path d="M83.3333 131.466H116.667V142.385H83.3333V131.466Z" fill="#EA9D2D"/>
<path d="M83.3333 125H116.667V158.333H83.3333V125Z" fill="#E794A5"/>
<path d="M83.3333 133.333H116.667V141.667H83.3333V133.333Z" fill="#5E325F"/>
<path d="M83.3333 150H116.667V158.333H83.3333V150Z" fill="#50559F"/>
<path d="M58.3333 150H141.667V183.333H58.3333V150Z" fill="#FFB4C3"/>
<path d="M62.6424 158.764H68.3895V183.333H62.6424V158.764Z" fill="#5E325F"/>
<path d="M74.1374 158.764H79.8845V183.333H74.1374V158.764Z" fill="#5E325F"/>
<path d="M120.117 158.764H125.864V183.333H120.117V158.764Z" fill="#5E325F"/>
<path d="M131.608 158.764H137.355V183.333H131.608V158.764Z" fill="#5E325F"/>
<path d="M62.6424 35.9192H140.229V46.8387H62.6424V35.9192Z" fill="#FBB540"/>
<path d="M131.606 79.5973V68.6778H137.353C148.457 68.6659 157.456 60.1172 157.468 49.5686V46.8387H134.48V35.9192H163.215C166.389 35.9192 168.962 38.3635 168.962 41.379V49.5686C168.942 66.1448 154.802 79.5779 137.353 79.5973H131.606Z" fill="#FBB540"/>
<path d="M68.3907 79.5973V68.6778H62.6435C51.5397 68.6659 42.5412 60.1172 42.5286 49.5686V46.8387H65.5171V35.9192H36.7815C33.6073 35.9192 31.0343 38.3635 31.0343 41.379V49.5686C31.0548 66.1448 45.1949 79.5779 62.6435 79.5973H68.3907Z" fill="#FBB540"/>
<path d="M65.5192 25H134.485V71.408C134.485 89.5 119.046 104.167 100.002 104.167C80.9578 104.167 65.5192 89.5 65.5192 71.408V25Z" fill="#FBB540"/>
<path d="M65.5192 25H134.485V41.3793H65.5192V25Z" fill="#FBB540"/>
<path d="M75 41.6667H125V50.0001H75V41.6667Z" fill="#EA9D2D"/>
</svg>
