<svg width="40" height="40" viewBox="0 0 40 40" fill="none" xmlns="http://www.w3.org/2000/svg">
<g id="Figma">
<g id="Figma_2">
<rect id="Rectangle" width="40" height="40" rx="20" fill="#5E325F"/>
<g id="Group">
<path id="Vector" opacity="0.5" d="M16.7037 31.2223C18.7481 31.2223 20.4074 29.5631 20.4074 27.5186V23.8149H16.7037C14.6593 23.8149 13 25.4742 13 27.5186C13 29.5631 14.6593 31.2223 16.7037 31.2223Z" fill="white"/>
<path id="Vector_2" opacity="0.7" d="M13 20.1112C13 18.0667 14.6593 16.4075 16.7037 16.4075H20.4074V23.8149H16.7037C14.6593 23.8149 13 22.1556 13 20.1112Z" fill="white"/>
<path id="Vector_3" d="M13 12.7037C13 10.6593 14.6593 9 16.7037 9H20.4074V16.4074H16.7037C14.6593 16.4074 13 14.7481 13 12.7037Z" fill="white"/>
<path id="Vector_4" opacity="0.85" d="M20.4074 9H24.1111C26.1556 9 27.8148 10.6593 27.8148 12.7037C27.8148 14.7481 26.1556 16.4074 24.1111 16.4074H20.4074V9Z" fill="white"/>
<path id="Vector_5" opacity="0.9" d="M27.8148 20.1112C27.8148 22.1556 26.1556 23.8149 24.1111 23.8149C22.0667 23.8149 20.4074 22.1556 20.4074 20.1112C20.4074 18.0667 22.0667 16.4075 24.1111 16.4075C26.1556 16.4075 27.8148 18.0667 27.8148 20.1112Z" fill="white"/>
</g>
</g>
</g>
</svg>
