<svg width="40" height="40" viewBox="0 0 40 40" fill="none" xmlns="http://www.w3.org/2000/svg">
<g id="location_on_24px">
<path id="icon/communication/location_on_24px" fill-rule="evenodd" clip-rule="evenodd" d="M20 3.33325C13.55 3.33325 8.33331 8.54992 8.33331 14.9999C8.33331 23.7499 20 36.6666 20 36.6666C20 36.6666 31.6666 23.7499 31.6666 14.9999C31.6666 8.54992 26.45 3.33325 20 3.33325ZM11.6666 14.9999C11.6666 10.3999 15.4 6.66659 20 6.66659C24.6 6.66659 28.3333 10.3999 28.3333 14.9999C28.3333 19.7999 23.5333 26.9833 20 31.4666C16.5333 27.0166 11.6666 19.7499 11.6666 14.9999ZM15.8333 14.9999C15.8333 12.6987 17.6988 10.8333 20 10.8333C21.4886 10.8333 22.8641 11.6274 23.6084 12.9166C24.3527 14.2058 24.3527 15.7941 23.6084 17.0833C22.8641 18.3724 21.4886 19.1666 20 19.1666C17.6988 19.1666 15.8333 17.3011 15.8333 14.9999Z" fill="#454545"/>
</g>
</svg>
