<svg width="50" height="50" viewBox="0 0 50 50" fill="none" xmlns="http://www.w3.org/2000/svg">
<path d="M21.875 17.1875L17.1875 21.875C17.0479 21.8057 16.9124 21.7305 16.7812 21.6494C16.0046 21.178 15.3531 20.5264 14.8819 19.7496C14.4106 18.9729 14.1336 18.094 14.0742 17.1875C14.0664 17.0654 14.0625 16.9424 14.0625 16.8184V14.8438H18.75L21.875 17.1875Z" fill="#F3AF3E"/>
<path d="M20.3122 19.5312L18.3591 20.7031L16.781 21.6494C16.0044 21.178 15.3528 20.5264 14.8816 19.7496C14.4104 18.9729 14.1333 18.094 14.074 17.1875H18.0398L19.9275 19.1348L20.3122 19.5312Z" fill="#5B3726"/>
<path d="M35.9375 14.8438V16.8184C35.9375 16.9424 35.9336 17.0654 35.9258 17.1875C35.8609 18.1725 35.5395 19.1235 34.9933 19.9458C34.4471 20.7681 33.6953 21.4332 32.8125 21.875L28.125 17.1875L31.25 14.8438H35.9375Z" fill="#F3AF3E"/>
<path d="M35.9258 17.1875C35.8705 18.0324 35.6261 18.8542 35.2106 19.592C34.7951 20.3298 34.2192 20.9648 33.5254 21.4502L31.25 20.3125L29.6875 19.5312L30.0723 19.1348L31.96 17.1875H35.9258Z" fill="#5B3726"/>
<path d="M33.5938 23.4375V33.5938H16.4062V23.4375C16.4062 21.1583 17.3117 18.9724 18.9233 17.3608C20.5349 15.7492 22.7208 14.8438 25 14.8438C27.2792 14.8438 29.4651 15.7492 31.0767 17.3608C32.6883 18.9724 33.5938 21.1583 33.5938 23.4375Z" fill="#F3AF3E"/>
<path d="M35.1562 3.125L34.375 6.25L42.9688 11.7188V32.8125H46.0938V10.1562L35.9375 3.38545L35.1562 3.125Z" fill="#B9B9B9"/>
<path d="M46.0938 35.1562V39.8438C46.0938 41.9158 45.2706 43.9029 43.8055 45.368C42.3404 46.8331 40.3533 47.6562 38.2812 47.6562H11.7187C9.64675 47.6562 7.65961 46.8331 6.19448 45.368C4.72935 43.9029 3.90625 41.9158 3.90625 39.8438V35.1562H46.0938Z" fill="#5E325F"/>
<path d="M46.0938 32.0312H3.90625C3.04331 32.0312 2.34375 32.7308 2.34375 33.5938C2.34375 34.4567 3.04331 35.1562 3.90625 35.1562H46.0938C46.9567 35.1562 47.6562 34.4567 47.6562 33.5938C47.6562 32.7308 46.9567 32.0312 46.0938 32.0312Z" fill="#6F3D71"/>
<path d="M33.866 8.77558L30.3711 3.59375L32.562 2.59375C33.1578 2.32179 33.8308 2.27 34.4612 2.44761C35.0916 2.62521 35.6385 3.02068 36.0047 3.56367C36.3709 4.10664 36.5326 4.76191 36.4611 5.41291C36.3896 6.06391 36.0894 6.66844 35.6141 7.11894L33.866 8.77558Z" fill="#CBCBCB"/>
<path d="M20.8482 20.3647L23.1927 19.584L23.6865 21.0669L21.342 21.8476L20.8482 20.3647Z" fill="#D18D28"/>
<path d="M26.3156 21.0408L26.8093 19.5579L29.1539 20.3385L28.6601 21.8215L26.3156 21.0408Z" fill="#D18D28"/>
<path d="M29.8652 26.3975L29.1664 25C28.5473 25.3075 26.4438 27.0135 25.7814 26.8156V25H24.2189V26.8164C23.5565 27.014 21.4522 25.3075 20.833 25L20.1342 26.3975C20.6705 26.6643 22.6483 28.4612 23.2468 28.4876C23.8452 28.5139 24.4425 28.4146 25.0002 28.1959C25.5579 28.4145 26.1552 28.5138 26.7536 28.4873C27.3521 28.4609 29.329 26.6643 29.8652 26.3975Z" fill="#744630"/>
<path d="M18.75 31.25C18.7505 31.5243 18.6784 31.7938 18.541 32.0312H16.4062V28.9062C17.0278 28.9062 17.624 29.1532 18.0635 29.5927C18.5031 30.0323 18.75 30.6284 18.75 31.25Z" fill="#D18D28"/>
<path d="M33.5937 28.9062V32.0312H31.459C31.3216 31.7938 31.2495 31.5243 31.25 31.25C31.25 30.6284 31.4969 30.0323 31.9365 29.5927C32.376 29.1532 32.9721 28.9062 33.5937 28.9062Z" fill="#D18D28"/>
<path d="M22.6562 13.2812H21.0938C21.0932 12.3916 21.2478 11.5087 21.5504 10.6721L23.02 11.2029C22.7789 11.8693 22.6558 12.5726 22.6562 13.2812Z" fill="#C0F5F9"/>
<path d="M23.7312 9.81722L22.4431 8.93265C23.0654 8.0238 23.8771 7.2605 24.8225 6.69525L25.3792 6.36127L26.1831 7.70111L25.6264 8.03509C24.8734 8.48532 24.2269 9.0933 23.7312 9.81722Z" fill="#C0F5F9"/>
<path d="M26.5625 13.2812H25C24.9995 12.3916 25.154 11.5087 25.4566 10.6721L26.9263 11.2029C26.6852 11.8693 26.5621 12.5726 26.5625 13.2812Z" fill="#C0F5F9"/>
<path d="M27.6375 9.81722L26.3494 8.93265C26.9716 8.0238 27.7834 7.2605 28.7288 6.69525L29.2854 6.36127L30.0893 7.70111L29.5327 8.03509C28.7797 8.48532 28.1331 9.0933 27.6375 9.81722Z" fill="#C0F5F9"/>
<path d="M30.4688 13.2812H28.9063C28.9057 12.3916 29.0603 11.5087 29.3629 10.6721L30.8326 11.2029C30.5915 11.8693 30.4684 12.5726 30.4688 13.2812Z" fill="#C0F5F9"/>
<path d="M7.8125 28.9062C9.53839 28.9062 10.9375 27.5071 10.9375 25.7812C10.9375 24.0554 9.53839 22.6562 7.8125 22.6562C6.08661 22.6562 4.6875 24.0554 4.6875 25.7812C4.6875 27.5071 6.08661 28.9062 7.8125 28.9062Z" fill="#B3E4E8"/>
<path d="M4.6875 20.3125C5.98192 20.3125 7.03125 19.2632 7.03125 17.9688C7.03125 16.6743 5.98192 15.625 4.6875 15.625C3.39308 15.625 2.34375 16.6743 2.34375 17.9688C2.34375 19.2632 3.39308 20.3125 4.6875 20.3125Z" fill="#C0F5F9"/>
<path d="M38.2812 26.5625C39.1442 26.5625 39.8438 25.8629 39.8438 25C39.8438 24.1371 39.1442 23.4375 38.2812 23.4375C37.4183 23.4375 36.7188 24.1371 36.7188 25C36.7188 25.8629 37.4183 26.5625 38.2812 26.5625Z" fill="#C0F5F9"/>
<path d="M25 40.332C25.2763 40.332 25.5413 40.2326 25.7366 40.0555C25.932 39.8785 26.0417 39.6384 26.0417 39.388V38.444C26.0417 38.1936 25.932 37.9535 25.7366 37.7765C25.5413 37.5995 25.2763 37.5 25 37.5C24.7238 37.5 24.4588 37.5995 24.2635 37.7765C24.0681 37.9535 23.9584 38.1936 23.9584 38.444V39.388C23.9584 39.6384 24.0681 39.8785 24.2635 40.0555C24.4588 40.2326 24.7238 40.332 25 40.332Z" fill="#29C3BE"/>
<path d="M22.9167 41.2761V40.332C22.9167 40.0817 22.807 39.8416 22.6116 39.6645C22.4163 39.4875 22.1513 39.388 21.875 39.388C21.5988 39.388 21.3338 39.4875 21.1385 39.6645C20.9431 39.8416 20.8334 40.0817 20.8334 40.332V41.2761C20.8334 41.5264 20.9431 41.7665 21.1385 41.9436C21.3338 42.1206 21.5988 42.2201 21.875 42.2201C22.1513 42.2201 22.4163 42.1206 22.6116 41.9436C22.807 41.7665 22.9167 41.5264 22.9167 41.2761Z" fill="#29C3BE"/>
<path d="M28.125 39.388C27.8488 39.388 27.5838 39.4875 27.3885 39.6645C27.1931 39.8416 27.0834 40.0817 27.0834 40.332V41.2761C27.0834 41.5264 27.1931 41.7665 27.3885 41.9436C27.5838 42.1206 27.8488 42.2201 28.125 42.2201C28.4013 42.2201 28.6663 42.1206 28.8616 41.9436C29.057 41.7665 29.1667 41.5264 29.1667 41.2761V40.332C29.1667 40.0817 29.057 39.8416 28.8616 39.6645C28.6663 39.4875 28.4013 39.388 28.125 39.388Z" fill="#29C3BE"/>
<path d="M27.0833 43.1641H26.0417V42.22C26.0417 41.9697 25.9319 41.7296 25.7366 41.5525C25.5412 41.3755 25.2763 41.276 25 41.276C24.7237 41.276 24.4588 41.3755 24.2634 41.5525C24.0681 41.7296 23.9583 41.9697 23.9583 42.22V43.1641H22.9167C22.6404 43.1641 22.3754 43.2635 22.1801 43.4405C21.9847 43.6176 21.875 43.8577 21.875 44.1081C21.875 44.3584 21.9847 44.5985 22.1801 44.7756C22.3754 44.9526 22.6404 45.0521 22.9167 45.0521H27.0833C27.3596 45.0521 27.6246 44.9526 27.8199 44.7756C28.0153 44.5985 28.125 44.3584 28.125 44.1081C28.125 43.8577 28.0153 43.6176 27.8199 43.4405C27.6246 43.2635 27.3596 43.1641 27.0833 43.1641Z" fill="#29C3BE"/>
<path d="M16.4062 32.8125H14.8438C14.4293 32.8125 14.0319 32.6479 13.7389 32.3549C13.4459 32.0618 13.2812 31.6644 13.2812 31.25C13.2812 30.6284 13.5282 30.0323 13.9677 29.5927C14.4073 29.1532 15.0034 28.9062 15.625 28.9062C16.2466 28.9062 16.8427 29.1532 17.2823 29.5927C17.7218 30.0323 17.9688 30.6284 17.9688 31.25C17.9688 31.6644 17.8041 32.0618 17.5111 32.3549C17.2181 32.6479 16.8207 32.8125 16.4062 32.8125Z" fill="#F3AF3E"/>
<path d="M35.1562 32.8125H33.5938C33.1793 32.8125 32.7819 32.6479 32.4889 32.3549C32.1959 32.0618 32.0312 31.6644 32.0312 31.25C32.0312 30.6284 32.2782 30.0323 32.7177 29.5927C33.1573 29.1532 33.7534 28.9062 34.375 28.9062C34.9966 28.9062 35.5927 29.1532 36.0323 29.5927C36.4718 30.0323 36.7188 30.6284 36.7188 31.25C36.7188 31.6644 36.5541 32.0618 36.2611 32.3549C35.9681 32.6479 35.5707 32.8125 35.1562 32.8125Z" fill="#F3AF3E"/>
<path d="M25 25.7812C24.5856 25.7812 24.1882 25.6166 23.8951 25.3236C23.6021 25.0306 23.4375 24.6332 23.4375 24.2188V22.6562H26.5625V24.2188C26.5625 24.6332 26.3979 25.0306 26.1049 25.3236C25.8118 25.6166 25.4144 25.7812 25 25.7812Z" fill="#5B3726"/>
<path d="M3.90625 35.1562H46.0938V36.7188H3.90625V35.1562Z" fill="#3E1B3F"/>
<path d="M27.3409 4.6969L29.9316 2.95002L34.2988 9.42659L31.7081 11.1735L27.3409 4.6969Z" fill="#B9B9B9"/>
</svg>
