<svg width="200" height="200" viewBox="0 0 200 200" fill="none" xmlns="http://www.w3.org/2000/svg">
<path d="M138.128 118.75V150L141.253 162.5L150.628 165.625L147.503 178.125H131.878L125.628 150V131.25L138.128 118.75Z" fill="#DBDBDB"/>
<path d="M50.0006 175H34.6608C31.4772 175 28.3566 174.113 25.6486 172.44C22.9406 170.766 20.7522 168.371 19.3287 165.523C11.1995 149.272 7.94373 131.017 9.95373 112.957L10.0045 112.5C10.8795 112.848 11.7311 113.234 12.567 113.648C16.4086 115.562 19.8565 118.18 22.7311 121.367C26.2409 125.254 28.8133 129.894 30.2506 134.93C30.7642 136.724 31.6451 138.393 32.8373 139.829C34.0295 141.265 35.5071 142.438 37.1764 143.273L38.1295 143.75L44.3795 165.625L46.2545 168.75L50.0006 175Z" fill="#DBDBDB"/>
<path d="M46.2539 168.75H37.7852C34.6016 168.75 31.481 167.863 28.773 166.19C26.065 164.516 23.8766 162.121 22.4531 159.273C15.9081 146.187 12.5004 131.757 12.5 117.125C12.5 115.969 12.5195 114.809 12.5664 113.648C16.408 115.562 19.8559 118.18 22.7305 121.367C26.2403 125.254 28.8127 129.894 30.25 134.93C30.7636 136.724 31.6445 138.393 32.8367 139.829C34.0289 141.265 35.5065 142.438 37.1758 143.273L38.1289 143.75L44.3789 165.625L46.2539 168.75Z" fill="#EAEAE8"/>
<path d="M175.628 31.25V46.875L166.253 53.125L156.683 55.0391L150.628 56.25L149.769 59.2578L146.269 71.5078L145.409 74.5156C145.382 74.6094 145.355 74.7031 145.335 74.8008C145.082 75.7329 144.913 76.686 144.831 77.6484C144.751 78.5776 144.748 79.5118 144.823 80.4414C144.863 80.9062 144.917 81.3672 144.995 81.8281C146.631 91.6526 145.415 101.74 141.491 110.895L138.128 118.75L125.628 131.25V150L128.378 162.375L138.128 165.625L135.003 178.125H119.378L110.003 143.75L104.628 149.125C99.9086 153.845 94.4584 157.774 88.4875 160.758L85.0031 162.5H88.4055C90.818 162.501 93.1314 163.46 94.8374 165.166C96.5433 166.872 97.5021 169.185 97.5031 171.598V178.125H52.9602C51.8331 178.125 50.7169 177.904 49.6755 177.472C48.6342 177.041 47.6879 176.409 46.891 175.612C46.094 174.815 45.4618 173.869 45.0307 172.828C44.5995 171.786 44.3778 170.67 44.3781 169.543V165.625L38.1281 143.75L41.8742 130.008C45.5227 116.635 53.5236 104.86 64.6125 96.543L86.3195 80.2617C93.6724 74.7462 99.641 67.5954 103.753 59.375L110.003 53.125L110.991 50.1641V50.1602L119.378 25L135.003 18.75H150.628L156.878 31.25H175.628Z" fill="#EAEAE8"/>
<path d="M144.378 37.5C146.104 37.5 147.503 36.1009 147.503 34.375C147.503 32.6491 146.104 31.25 144.378 31.25C142.652 31.25 141.253 32.6491 141.253 34.375C141.253 36.1009 142.652 37.5 144.378 37.5Z" fill="#8F563B"/>
<path d="M95.266 165.625H76.0159C75.1871 165.625 74.3923 165.296 73.8062 164.71C73.2202 164.124 72.8909 163.329 72.8909 162.5C72.8909 161.671 73.2202 160.877 73.8062 160.291C74.3923 159.705 75.1871 159.375 76.0159 159.375C78.1373 159.383 80.2183 158.795 82.0231 157.68C83.8278 156.565 85.2841 154.967 86.2269 153.067C87.3567 150.793 87.7028 148.21 87.2113 145.719C86.6438 142.841 85.4227 140.132 83.6421 137.801C81.8615 135.469 79.569 133.578 76.9417 132.274L74.2308 130.922C73.489 130.552 72.9247 129.902 72.6621 129.116C72.3995 128.329 72.46 127.471 72.8304 126.729C73.2008 125.987 73.8506 125.423 74.637 125.16C75.4234 124.898 76.282 124.958 77.0238 125.328L79.7347 126.684C83.2162 128.411 86.2538 130.916 88.6129 134.005C90.9721 137.093 92.5895 140.683 93.3402 144.496C93.8574 147.105 93.7815 149.797 93.1182 152.372C92.4549 154.948 91.2211 157.341 89.5082 159.375L85.0042 162.5H88.4066C89.7072 162.499 90.9929 162.777 92.1764 163.316C93.36 163.855 94.4137 164.643 95.266 165.625Z" fill="#DBDBDB"/>
<path d="M166.253 31.25C166.253 33.7364 167.24 36.121 168.999 37.8791C170.757 39.6373 173.141 40.625 175.628 40.625V31.25H166.253Z" fill="#8F563B"/>
<path d="M156.684 55.0391L150.63 56.25L149.77 59.2578L140.266 56.0898C139.644 55.8824 139.103 55.4845 138.719 54.9523C138.336 54.4202 138.13 53.7809 138.13 53.125V46.875C138.13 46.0462 138.459 45.2513 139.045 44.6653C139.631 44.0792 140.426 43.75 141.255 43.75C142.084 43.75 142.878 44.0792 143.464 44.6653C144.05 45.2513 144.38 46.0462 144.38 46.875V50.8711L156.122 54.7852C156.317 54.8506 156.506 54.9356 156.684 55.0391Z" fill="#DBDBDB"/>
<path d="M148.534 74.4571C148.549 75.2853 148.234 76.0854 147.659 76.6817C147.084 77.2779 146.296 77.6214 145.468 77.6368L144.831 77.6486L143.23 77.6798C142.984 77.6837 142.738 77.6876 142.495 77.6876C135.172 77.7043 127.997 75.6227 121.819 71.6893C115.641 67.7559 110.719 62.1352 107.636 55.4923L110.003 53.1251L110.992 50.1642C111.057 50.1842 111.12 50.2076 111.183 50.2345C111.258 50.2627 111.331 50.2967 111.402 50.3361C111.455 50.3574 111.506 50.3836 111.554 50.4142C111.617 50.4493 111.675 50.4845 111.734 50.5236C112.239 50.8604 112.635 51.3367 112.874 51.8947C115.346 57.7023 119.474 62.653 124.743 66.1286C130.012 69.6042 136.188 71.4508 142.499 71.4376C142.702 71.4376 142.906 71.4337 143.113 71.4298L145.351 71.3907C145.661 71.382 145.971 71.4215 146.269 71.5079C146.911 71.6944 147.477 72.081 147.885 72.6114C148.292 73.1418 148.52 73.7884 148.534 74.4571Z" fill="#5D62B5"/>
<path d="M156.879 78.125C156.878 79.3602 156.512 80.5676 155.825 81.5944C155.138 82.6212 154.163 83.4214 153.021 83.8938C151.88 84.3663 150.624 84.4897 149.413 84.2486C148.201 84.0074 147.088 83.4125 146.215 82.5391C145.342 81.6656 144.747 80.5528 144.506 79.3413C144.264 78.1299 144.388 76.8741 144.86 75.7327C145.333 74.5914 146.133 73.6157 147.16 72.9291C148.186 72.2424 149.394 71.8756 150.629 71.875C152.287 71.875 153.876 72.5335 155.048 73.7056C156.221 74.8777 156.879 76.4674 156.879 78.125Z" fill="#F3AF3E"/>
<path d="M153.125 78.1251C153.125 79.4544 152.701 80.7491 151.915 81.8211C151.129 82.893 150.022 83.6864 148.754 84.0861C147.486 83.6865 146.379 82.8931 145.593 81.8211C144.807 80.7491 144.383 79.4544 144.383 78.1251C144.383 76.7958 144.807 75.5011 145.593 74.4292C146.379 73.3572 147.486 72.5638 148.754 72.1642C150.022 72.5638 151.129 73.3572 151.915 74.4292C152.701 75.5012 153.125 76.7958 153.125 78.1251Z" fill="#EA9D2D"/>
<path d="M178.125 178.125C185.029 178.125 190.625 172.529 190.625 165.625C190.625 158.721 185.029 153.125 178.125 153.125C171.221 153.125 165.625 158.721 165.625 165.625C165.625 172.529 171.221 178.125 178.125 178.125Z" fill="#5D62B5"/>
<path d="M190.625 165.625C190.625 168.94 189.308 172.12 186.964 174.464C184.62 176.808 181.44 178.125 178.125 178.125C180.065 174.244 181.075 169.964 181.075 165.625C181.075 161.286 180.065 157.006 178.125 153.125C181.44 153.125 184.62 154.442 186.964 156.786C189.308 159.13 190.625 162.31 190.625 165.625Z" fill="#29C3BE"/>
<path d="M131.88 37.5V48.1094C131.877 51.4242 130.559 54.6026 128.216 56.9468C125.872 59.2911 122.694 60.6098 119.38 60.6133C119.036 60.6133 118.692 60.5977 118.348 60.5703C116.238 60.3954 114.206 59.6856 112.446 58.5078L108.27 55.7266C108.099 55.6125 107.939 55.4817 107.794 55.3359L110.005 53.125L110.993 50.1641C111.058 50.184 111.122 50.2075 111.184 50.2344C111.26 50.2626 111.333 50.2966 111.403 50.3359C111.456 50.3573 111.507 50.3834 111.555 50.4141C111.618 50.4492 111.676 50.4844 111.735 50.5234L115.911 53.3086C116.852 53.9359 117.946 54.296 119.076 54.3505C120.206 54.4051 121.329 54.1522 122.327 53.6186C123.324 53.085 124.158 52.2908 124.74 51.3206C125.321 50.3504 125.629 49.2406 125.63 48.1094V37.5C125.63 36.6712 125.959 35.8763 126.545 35.2903C127.131 34.7042 127.926 34.375 128.755 34.375C129.583 34.375 130.378 34.7042 130.964 35.2903C131.55 35.8763 131.88 36.6712 131.88 37.5Z" fill="#C3C3C3"/>
</svg>
