<svg width="200" height="200" viewBox="0 0 200 200" fill="none" xmlns="http://www.w3.org/2000/svg">
<path d="M153.125 171.875V143.75H171.875V178.125C171.875 181.44 170.558 184.62 168.214 186.964C165.87 189.308 162.69 190.625 159.375 190.625H153.125V171.875Z" fill="#F6BB92"/>
<path d="M167.87 125L170.879 117.593L173.548 111.023C174.978 107.49 175.363 103.595 174.653 99.8341C173.943 96.0734 172.171 92.6175 169.563 89.9074C166.082 86.2899 164.126 81.3839 164.126 76.2686V58.3334H85.8745V76.2699C85.8747 81.3853 83.9191 86.2913 80.4379 89.9088C77.8296 92.6186 76.0574 96.0741 75.3473 99.8346C74.6372 103.595 75.0214 107.49 76.4509 111.023L79.2761 118.005L167.87 125Z" fill="#834B10"/>
<path d="M171.875 128.384C171.875 123.945 170.301 119.651 167.432 116.264C164.563 112.878 160.585 110.619 156.207 109.889L153.125 109.375L136.986 106.685L125 118.75L112.888 106.592L90.625 109.375V190.625H153.125V165.625C155.952 162.797 157.736 159.095 158.188 155.122C158.639 151.149 157.73 147.14 155.61 143.75H171.875V128.384Z" fill="#E794A5"/>
<path d="M166.667 75H83.3333V51.4706C83.3333 40.0299 87.7232 29.0578 95.5372 20.968C103.351 12.8782 113.949 8.33337 125 8.33337C136.051 8.33337 146.649 12.8782 154.463 20.968C162.277 29.0578 166.667 40.0299 166.667 51.4706V75Z" fill="#834B10"/>
<path d="M150 53.125V50L146.875 34.375H103.125L100 50V53.125C97.5136 53.125 95.129 54.1127 93.3709 55.8709C91.6127 57.629 90.625 60.0136 90.625 62.5C90.625 64.9864 91.6127 77.4085 93.3709 79.1667C95.129 80.9248 94.2423 78.655 96.7287 78.655L95.8333 79.1667H100C100 84.9683 105.43 86.3656 109.532 90.468C113.634 94.5703 119.198 96.875 125 96.875C130.802 96.875 136.366 94.5703 140.468 90.468C144.57 86.3656 146.875 84.4566 146.875 78.655L150 79.1667H154.167C156.653 79.1667 154.871 80.4132 156.629 78.655C158.387 76.8969 159.375 64.9864 159.375 62.5C159.375 60.0136 158.387 57.629 156.629 55.8709C154.871 54.1127 152.486 53.125 150 53.125Z" fill="#F6BB92"/>
<path d="M121.875 130.684V190.625H51.9531C54.2842 186.996 56.9976 183.628 60.0469 180.578L60.2773 180.348C65.8649 174.77 70.3345 168.175 73.4453 160.918C74.6719 158.059 75.8945 155.199 76.7852 153.125C77.5938 151.238 78.125 150 78.125 150H69.1328C66.3459 149.998 63.6395 149.065 61.4429 147.35C59.2464 145.634 57.6855 143.235 57.0078 140.531L55.4688 134.375L55.0664 132.766C54.8361 131.844 54.8188 130.883 55.0158 129.954C55.2128 129.024 55.6189 128.153 56.2033 127.404C56.7878 126.655 57.5351 126.05 58.3886 125.633C59.242 125.217 60.1792 125 61.1289 125H71.875C73.8899 118.949 78.0039 113.82 83.4727 110.539L84.8398 109.723C88.3545 107.615 92.3439 106.427 96.4391 106.27C100.534 106.112 104.603 106.989 108.27 108.82L108.406 108.891C112.453 110.914 115.857 114.025 118.236 117.874C120.615 121.723 121.875 126.159 121.875 130.684Z" fill="#4B4B4B"/>
<path d="M121.875 131.25V140.117C121.875 142.085 121.256 144.003 120.105 145.599C118.955 147.195 117.331 148.389 115.464 149.011C113.54 149.652 111.46 149.652 109.536 149.011C107.669 148.389 106.045 147.195 104.895 145.599C103.744 144.003 103.125 142.085 103.125 140.117V125H115.625L121.875 131.25Z" fill="black"/>
<path d="M92.8352 145.961L86.5852 152.211C85.9985 152.797 85.2032 153.125 84.3743 153.125H76.7844C77.593 151.238 78.1243 150 78.1243 150H69.1321C66.0888 150.003 63.1499 148.891 60.8704 146.875H83.0813L88.4133 141.539C88.9997 140.953 89.795 140.623 90.6243 140.623C91.4535 140.623 92.2488 140.953 92.8352 141.539C93.4216 142.125 93.751 142.921 93.751 143.75C93.751 144.579 93.4216 145.375 92.8352 145.961Z" fill="black"/>
<path d="M65.625 125V128.777C65.625 130.262 65.0352 131.686 63.9853 132.735C62.9355 133.785 61.5116 134.375 60.0269 134.375H55.4687L55.0663 132.766C54.836 131.844 54.8187 130.883 55.0157 129.954C55.2127 129.024 55.6188 128.153 56.2033 127.404C56.7877 126.655 57.535 126.05 58.3885 125.633C59.242 125.217 60.1791 125 61.1288 125H65.625Z" fill="black"/>
<path d="M75.3181 182.906C74.7379 182.906 74.1693 182.744 73.676 182.439C73.1827 182.133 72.7841 181.697 72.5248 181.178C72.2655 180.659 72.1559 180.078 72.2081 179.5C72.2603 178.922 72.4723 178.37 72.8204 177.906C76.5477 172.94 79.4483 167.404 81.4103 161.512C81.537 161.119 81.7404 160.755 82.0087 160.441C82.277 160.127 82.6048 159.869 82.9733 159.683C83.3418 159.496 83.7435 159.385 84.1554 159.355C84.5673 159.324 84.981 159.376 85.3728 159.507C85.7646 159.637 86.1266 159.844 86.4379 160.116C86.7492 160.387 87.0036 160.717 87.1864 161.088C87.3693 161.458 87.4769 161.861 87.5032 162.273C87.5294 162.685 87.4737 163.098 87.3392 163.489C85.165 170.017 81.9507 176.152 77.8204 181.656C77.5294 182.045 77.1516 182.36 76.7172 182.577C76.2828 182.794 75.8037 182.907 75.3181 182.906Z" fill="black"/>
<path d="M100 53.125C102.938 52.1459 105.627 50.5383 107.88 48.414C110.133 46.2897 111.897 43.6998 113.047 40.8246L115.625 34.375L100 31.25V53.125Z" fill="#834B10"/>
<path d="M115.625 34.375L115.991 34.9238C119.724 40.5227 124.781 45.1135 130.713 48.2886C136.646 51.4638 143.271 53.125 150 53.125V31.25L115.625 34.375Z" fill="#834B10"/>
<path d="M112.24 66.1459C114.397 66.1459 116.146 64.397 116.146 62.2396C116.146 60.0823 114.397 58.3334 112.24 58.3334C110.082 58.3334 108.333 60.0823 108.333 62.2396C108.333 64.397 110.082 66.1459 112.24 66.1459Z" fill="black"/>
<path d="M128.906 66.1459C131.064 66.1459 132.812 64.397 132.812 62.2396C132.812 60.0823 131.064 58.3334 128.906 58.3334C126.749 58.3334 125 60.0823 125 62.2396C125 64.397 126.749 66.1459 128.906 66.1459Z" fill="black"/>
<path d="M156.25 190.625H109.375C106.889 190.625 104.504 189.637 102.746 187.879C100.988 186.121 100 183.736 100 181.25C100 178.764 100.988 176.379 102.746 174.621C104.504 172.863 106.889 171.875 109.375 171.875H112.5C112.5 170.217 113.158 168.628 114.331 167.456C115.503 166.283 117.092 165.625 118.75 165.625H119.286C120.944 165.625 122.533 166.283 123.705 167.455L128.125 171.875H156.25V190.625Z" fill="#F6BB92"/>
<path d="M52.3007 176.118C51.8388 177.141 51.6032 178.251 51.6099 179.373C51.6166 180.495 51.8655 181.603 52.3395 182.62C52.8135 183.637 53.5014 184.54 54.3564 185.267C55.2113 185.994 56.2131 186.528 57.2932 186.832L69.3221 190.23C71.7148 190.906 74.278 190.604 76.448 189.391C78.618 188.177 80.217 186.151 80.8932 183.758C81.5692 181.366 81.267 178.803 80.0534 176.633C78.8397 174.463 76.8138 172.864 74.4214 172.188L71.4135 171.338C71.6368 170.549 71.7023 169.722 71.6063 168.907C71.5103 168.092 71.2547 167.304 70.8541 166.588C70.4534 165.871 69.9156 165.241 69.2713 164.732C68.6271 164.224 67.8889 163.847 67.0991 163.624L66.5831 163.478C65.7932 163.255 64.9672 163.19 64.152 163.286C63.3369 163.382 62.5486 163.637 61.8323 164.038C58.2896 166.02 55.4761 169.086 53.8053 172.785L52.3007 176.118Z" fill="#F6BB92"/>
<path d="M36.3479 75C39.3378 75.0003 42.2052 76.3778 44.3195 78.8296L49.9995 85.417L55.6789 78.8296C57.7933 76.3779 60.6606 75.0004 63.6505 75C66.1649 74.9999 68.6072 75.9747 70.589 77.7694C72.5709 79.564 73.9786 82.0755 74.5883 84.9046C75.2779 88.1032 75.0979 91.4709 74.0728 94.5462C73.0477 97.6215 71.2277 100.254 68.8623 102.083L50 116.667L31.1378 102.083C28.7723 100.254 26.9523 97.6216 25.9272 94.5463C24.9021 91.471 24.7221 88.1032 25.4117 84.9046C26.0214 82.0758 27.4288 79.5646 29.4104 77.77C31.3919 75.9754 33.8338 75.0004 36.3479 75Z" fill="#FFB4C3"/>
<path d="M100 53.125H103.125V71.875H100V53.125Z" fill="#EEB58E"/>
<path d="M146.875 53.125H150V71.875H146.875V53.125Z" fill="#EEB58E"/>
<path d="M112.888 106.592L125.001 118.75L136.987 106.685C136.257 106.564 135.594 106.187 135.116 105.623C134.638 105.058 134.376 104.342 134.376 103.603V93.75H115.626V103.491C115.626 104.253 115.347 104.989 114.843 105.56C114.339 106.131 113.644 106.498 112.888 106.592Z" fill="#F6BB92"/>
<path d="M125 100C116.159 100 107.681 96.927 101.43 91.4572C95.1786 85.9874 91.6667 78.5688 91.6667 70.8333V66.6666H158.333V70.8333C158.333 78.5688 154.821 85.9874 148.57 91.4572C142.319 96.927 133.841 100 125 100Z" fill="#E794A5"/>
<path d="M87.5 131.25C89.2259 131.25 90.625 129.851 90.625 128.125C90.625 126.399 89.2259 125 87.5 125C85.7741 125 84.375 126.399 84.375 128.125C84.375 129.851 85.7741 131.25 87.5 131.25Z" fill="black"/>
</svg>
