<svg width="200" height="202" viewBox="0 0 200 202" fill="none" xmlns="http://www.w3.org/2000/svg">
<path d="M190.625 76.8192V80.8829C190.625 93.6598 187.492 106.238 181.506 117.494C175.52 128.75 166.867 138.333 156.32 145.389L121.875 168.429L109.375 176.789L100 183.062L96.875 180.995L87.5 174.789L83.0078 171.818L49.3242 149.531L44.8984 146.604L43.9961 146.004C33.3611 138.967 24.6277 129.366 18.5837 118.068C12.5396 106.77 9.37491 94.1307 9.375 81.2892V72.1637C9.37525 62.1387 12.206 52.3216 17.5352 43.864C21.7376 37.1921 27.5389 31.6991 34.4019 27.8937C41.2649 24.0882 48.9676 22.0933 56.7969 22.0938H57.9805C65.2054 22.0941 72.3311 23.7934 78.7931 27.0571C85.2552 30.3207 90.8762 35.0592 95.2109 40.8971L100 47.3438L104.789 40.8971C109.396 34.6922 115.452 29.7353 122.417 26.4681C129.381 23.201 137.038 21.7253 144.704 22.1726C152.37 22.6198 159.808 24.9762 166.354 29.0315C172.899 33.0868 178.35 38.7151 182.219 45.4145C187.722 54.9474 190.623 65.7842 190.625 76.8192Z" fill="#E794A5"/>
<path d="M109.375 149.922V176.75V176.789L121.875 168.429V140.059L109.375 149.922Z" fill="#EA9D2D"/>
<path d="M140.625 66.2812V74.1719C140.626 75.2082 140.424 76.2344 140.031 77.1919C139.639 78.1493 139.063 79.0193 138.338 79.7521C137.612 80.4849 136.751 81.0661 135.803 81.4625C134.855 81.8589 133.839 82.0628 132.813 82.0625H125V101L123.857 104.161L125.836 107.312L127.36 118.849C127.734 121.672 127.852 124.525 127.711 127.37C127.445 132.779 125.39 137.942 121.875 142.031L109.375 151.5V176.789L100 183.062L96.8753 180.995V157.812L83.0081 171.818L49.3245 149.531L75.0003 113.625L81.2503 104.156L89.4339 95.8908L93.5718 94.8678L93.7503 91.5312V82.7411C93.7509 74.2218 97.1021 66.0517 103.067 60.0279C105.106 57.9699 107.871 56.8135 110.754 56.8125H117.52C120.31 56.8131 122.985 57.9328 124.957 59.9254L131.25 66.2812H140.625Z" fill="#FBB540"/>
<path d="M112.5 66.2812H118.75V72.5938H112.5V66.2812Z" fill="#985713"/>
<path d="M125.836 107.312H121.328C115.039 107.304 108.837 105.826 103.207 102.992L89.4338 95.8909L93.7502 91.5313V91.0303L106.028 97.3585C110.781 99.7491 116.018 100.995 121.328 101H125L125.836 107.312Z" fill="#5D62B5"/>
<path d="M100.778 94.6875H93.75V88.375H100.778C101.4 88.3743 101.997 88.1242 102.437 87.6797C102.877 87.2352 103.124 86.6325 103.125 86.0039V75.75H109.375V86.0039C109.372 88.306 108.466 90.5132 106.854 92.1411C105.242 93.769 103.057 94.6848 100.778 94.6875Z" fill="#985713"/>
<path d="M100 113.625V119.938C99.9995 122.449 99.0116 124.857 97.2535 126.632C95.4955 128.408 93.1113 129.406 90.6251 129.406V140.887C90.6263 143.692 89.8039 146.434 88.2618 148.766L84.3751 154.656V164.125L85.5118 166.421L86.4571 168.335L87.5001 170.438V174.789L83.0079 171.818L49.3243 149.531L44.8985 146.604L62.5001 119.938V110.058C62.5001 109.818 62.504 109.573 62.5118 109.332C62.7096 104.717 64.4438 100.303 67.4337 96.8061L71.8751 91.5312L75.0001 104.156H82.4829C84.0261 104.156 85.5455 104.541 86.9059 105.277C88.2664 106.013 89.4259 107.077 90.2813 108.374C91.3487 109.989 92.7941 111.313 94.4894 112.229C96.1846 113.145 98.0775 113.625 100 113.625Z" fill="#E4E4E2"/>
<path d="M78.125 113.625H84.375V119.938H78.125V113.625Z" fill="#29C3BE"/>
</svg>
