<svg width="40" height="40" viewBox="0 0 40 40" fill="none" xmlns="http://www.w3.org/2000/svg">
<rect width="40" height="40" rx="20" fill="#5E325F"/>
<path fill-rule="evenodd" clip-rule="evenodd" d="M24.7604 28.6438C25.9254 29.1535 26.3622 28.0856 26.3622 28.0856L29.4444 12.6016C29.4202 11.558 28.0125 12.1891 28.0125 12.1891L10.7569 18.9603C10.7569 18.9603 9.93174 19.2515 10.0045 19.7612C10.0774 20.2708 10.7326 20.5135 10.7326 20.5135L15.0769 21.9697C15.0769 21.9697 16.3874 26.2654 16.6544 27.0906C16.8971 27.8914 17.1155 27.9157 17.1155 27.9157C17.3582 28.0128 17.5766 27.8429 17.5766 27.8429L20.3919 25.2946L24.7604 28.6438ZM25.5128 15.3438C25.5128 15.3438 26.1195 14.9798 26.0953 15.3438C26.0953 15.3438 26.1923 15.3924 25.8768 15.7322C25.5856 16.0234 18.7173 22.1879 17.7951 23.013C17.7223 23.0616 17.6737 23.1344 17.6737 23.2314L17.4068 25.5128C17.3582 25.7555 17.0427 25.7797 16.9699 25.5613L15.8293 21.8238C15.7807 21.6782 15.8293 21.5083 15.9749 21.4112L25.5128 15.3438Z" fill="white"/>
</svg>
