<svg width="40" height="40" viewBox="0 0 40 40" fill="none" xmlns="http://www.w3.org/2000/svg">
<rect width="40" height="40" rx="20" fill="#5E325F"/>
<path fill-rule="evenodd" clip-rule="evenodd" d="M30.7124 13.8936C30.8669 13.3786 30.7124 13 29.9771 13H27.546C26.9278 13 26.643 13.327 26.4885 13.6877C26.4885 13.6877 25.2521 16.701 23.5006 18.6584C22.934 19.2251 22.6765 19.4051 22.3674 19.4051C22.2128 19.4051 21.9891 19.2251 21.9891 18.71V13.8936C21.9891 13.2754 21.8098 13 21.2945 13H17.4742C17.088 13 16.8557 13.2869 16.8557 13.5588C16.8557 14.1449 17.7312 14.28 17.8215 15.9283V19.5085C17.8215 20.2934 17.6798 20.4358 17.3707 20.4358C16.5466 20.4358 14.5419 17.4087 13.3528 13.9452C13.1197 13.2719 12.886 13 12.2647 13H9.83353C9.13892 13 9 13.327 9 13.6877C9 14.3316 9.82432 17.5254 12.8377 21.7493C14.8469 24.6336 17.677 26.1975 20.2526 26.1975C21.7981 26.1975 21.9891 25.8502 21.9891 25.252V23.0718C21.9891 22.3772 22.1355 22.2386 22.6247 22.2386C22.9856 22.2386 23.6036 22.4189 25.0461 23.8096C26.6944 25.4578 26.966 26.1975 27.8933 26.1975H30.3244C31.019 26.1975 31.3663 25.8502 31.1659 25.1648C30.9468 24.4817 30.1598 23.4908 29.1155 22.3159C28.5488 21.6461 27.6988 20.9249 27.4415 20.5644C27.0808 20.1008 27.1838 19.8948 27.4415 19.4829C27.4415 19.4829 30.4033 15.3104 30.7124 13.8938V13.8936Z" fill="white"/>
</svg>
