<svg width="40" height="40" viewBox="0 0 40 40" fill="none" xmlns="http://www.w3.org/2000/svg">
<rect width="40" height="40" rx="20" fill="#5E325F"/>
<path fill-rule="evenodd" clip-rule="evenodd" d="M30.7082 20.5608C30.4506 19.5841 29.6962 18.814 28.7395 18.5511C26.9915 18.0627 19.9999 18.0627 19.9999 18.0627C19.9999 18.0627 13.0083 18.0627 11.2604 18.5323C10.322 18.7953 9.54929 19.5841 9.2917 20.5608C8.83173 22.3451 8.83173 26.0452 8.83173 26.0452C8.83173 26.0452 8.83173 29.7641 9.2917 31.5297C9.54929 32.5064 10.3036 33.2764 11.2604 33.5394C13.0267 34.0277 19.9999 34.0277 19.9999 34.0277C19.9999 34.0277 26.9915 34.0277 28.7395 33.5582C29.6962 33.2952 30.4506 32.5251 30.7082 31.5485C31.1681 29.7641 31.1681 26.064 31.1681 26.064C31.1681 26.064 31.1865 22.3451 30.7082 20.5608ZM26.1472 27.8521V28.184C26.1472 28.602 26.1593 28.9216 26.1834 29.1305C26.2075 29.3395 26.2556 29.4993 26.3399 29.5854C26.4122 29.6837 26.5326 29.7329 26.7012 29.7329C26.9179 29.7329 27.0624 29.6468 27.1467 29.4747C27.231 29.3026 27.2671 29.0199 27.2791 28.6143L28.5194 28.688C28.5315 28.7495 28.5315 28.8232 28.5315 28.9216C28.5315 29.5239 28.3749 29.9787 28.0498 30.2737C27.7247 30.5688 27.2671 30.7163 26.6771 30.7163C25.9666 30.7163 25.4729 30.4827 25.1839 30.0279C24.8949 29.5731 24.7504 28.8724 24.7504 27.9136V26.7704C24.7504 25.787 24.8949 25.0741 25.196 24.6192C25.497 24.1644 26.0027 23.9432 26.7132 23.9432C27.2069 23.9432 27.5922 24.0415 27.8571 24.2259C28.1221 24.4103 28.3027 24.7053 28.4111 25.0863C28.5194 25.4797 28.5676 26.0206 28.5676 26.7089V27.8275H26.1472V27.8521ZM26.3279 25.0986C26.2556 25.197 26.2075 25.3445 26.1834 25.5535C26.1593 25.7624 26.1472 26.082 26.1472 26.5123V26.9794H27.2069V26.5123C27.2069 26.0943 27.1949 25.7747 27.1708 25.5535C27.1467 25.3322 27.0865 25.1847 27.0142 25.0986C26.942 25.0126 26.8216 24.9634 26.6771 24.9634C26.5085 24.9511 26.4001 25.0003 26.3279 25.0986ZM19.1872 30.6425V24.0907H17.7422V29.2903C17.694 29.4133 17.6098 29.5116 17.4893 29.5854C17.3689 29.6714 17.2485 29.7083 17.1281 29.7083C16.9836 29.7083 16.8752 29.6468 16.815 29.5239C16.7548 29.401 16.7187 29.192 16.7187 28.897V24.0907H15.2737V28.983C15.2737 29.5976 15.37 30.0402 15.5747 30.3229C15.7794 30.6056 16.0925 30.7531 16.514 30.7531C17.1281 30.7531 17.5977 30.4458 17.8988 29.8435H17.9349L18.0553 30.6425H19.1872ZM15.7072 22.8613H14.2743V30.6301H12.8654V22.8613H11.4325V21.669H15.7072V22.8613ZM23.5462 24.2382C23.7389 24.4225 23.8834 24.7176 23.9677 25.1355C24.052 25.5412 24.0881 26.1189 24.1002 26.8687V27.9013C24.1002 28.8724 23.9797 29.5976 23.751 30.0525C23.5222 30.5073 23.173 30.7408 22.6793 30.7408C22.4023 30.7408 22.1615 30.6671 21.9327 30.5441C21.7039 30.4089 21.5353 30.2368 21.4269 30.0156H21.3908L21.2463 30.6302H20.0542V21.3372H21.451V24.7913H21.4631C21.5835 24.5455 21.7641 24.3365 21.9929 24.189C22.2217 24.0292 22.4746 23.9554 22.7395 23.9554C23.0766 23.9554 23.3536 24.0538 23.5462 24.2382ZM22.5829 28.9216C22.619 28.6511 22.6431 28.2824 22.6431 27.8029H22.6552V26.9425C22.6552 26.4385 22.6431 26.0451 22.607 25.7624C22.5709 25.492 22.5227 25.2953 22.4384 25.1724C22.3662 25.0617 22.2458 25.0003 22.1013 25.0003C21.9688 25.0003 21.8364 25.0617 21.7159 25.1724C21.5955 25.2953 21.5112 25.4428 21.4631 25.6149V29.3272C21.5233 29.4378 21.6076 29.5239 21.7039 29.5853C21.8002 29.6468 21.9086 29.6714 22.029 29.6714C22.1735 29.6714 22.2939 29.6099 22.3903 29.4993C22.4746 29.3887 22.5468 29.192 22.5829 28.9216Z" fill="white"/>
<path d="M18.6453 15.5823C18.3563 15.3857 18.1516 15.0783 18.0312 14.6481C17.9108 14.2302 17.8506 13.6647 17.8506 12.9763V12.0298C17.8506 11.3292 17.9228 10.7637 18.0553 10.3335C18.1998 9.90325 18.4165 9.59594 18.7055 9.39927C19.0066 9.20259 19.3919 9.10425 19.8736 9.10425C20.3432 9.10425 20.7285 9.20259 21.0175 9.39927C21.3065 9.59594 21.5112 9.91555 21.6437 10.3335C21.7761 10.7514 21.8484 11.3169 21.8484 12.0298V12.9763C21.8484 13.677 21.7882 14.2302 21.6557 14.6604C21.5232 15.0783 21.3185 15.3979 21.0295 15.5946C20.7405 15.7913 20.3432 15.8896 19.8495 15.8896C19.3437 15.8773 18.9343 15.779 18.6453 15.5823ZM20.2709 14.5498C20.3552 14.3408 20.3913 13.9843 20.3913 13.5049V11.4644C20.3913 10.9973 20.3552 10.6531 20.2709 10.4318C20.1866 10.2106 20.0542 10.1122 19.8495 10.1122C19.6568 10.1122 19.5123 10.2229 19.4401 10.4318C19.3558 10.6531 19.3196 10.9973 19.3196 11.4644V13.5049C19.3196 13.9843 19.3558 14.3408 19.4401 14.5498C19.5123 14.7587 19.6568 14.8694 19.8615 14.8694C20.0542 14.8694 20.1866 14.771 20.2709 14.5498Z" fill="white"/>
<path d="M15.1292 12.8658L13.4915 6.80566H14.9245L15.5025 9.54686C15.647 10.2229 15.7554 10.8007 15.8276 11.2801H15.8637C15.9119 10.9359 16.0203 10.3705 16.1888 9.55916L16.7909 6.80566H18.2239L16.5621 12.8658V15.7668H15.1412V12.8658H15.1292Z" fill="white"/>
<path d="M26.5085 9.22729V15.7791H25.3766L25.2561 14.9801H25.22C24.919 15.5825 24.4494 15.8898 23.8352 15.8898C23.4138 15.8898 23.1007 15.7423 22.896 15.4595C22.6913 15.1768 22.595 14.7343 22.595 14.1197V9.22729H24.04V14.0336C24.04 14.3286 24.0761 14.5376 24.1363 14.6605C24.1965 14.7835 24.3049 14.8449 24.4494 14.8449C24.5698 14.8449 24.6902 14.808 24.8106 14.722C24.931 14.6482 25.0153 14.5499 25.0635 14.427V9.22729H26.5085Z" fill="white"/>
</svg>
